<svg width="21" height="20" viewBox="0 0 21 20" fill="none" xmlns="http://www.w3.org/2000/svg">
<path d="M16.2019 4.457C15.0977 3.94227 13.9022 3.56868 12.6569 3.35282C12.646 3.35247 12.6351 3.35452 12.6251 3.35882C12.615 3.36313 12.606 3.36958 12.5988 3.37773C12.4493 3.6517 12.275 4.00869 12.1587 4.28266C10.8379 4.08341 9.49459 4.08341 8.17373 4.28266C8.0575 4.00039 7.88315 3.6517 7.72541 3.37773C7.71711 3.36112 7.6922 3.35282 7.6673 3.35282C6.42198 3.56868 5.23477 3.94227 4.12229 4.457C4.11399 4.457 4.10569 4.46531 4.09738 4.47361C1.83921 7.85257 1.21655 11.1402 1.52373 14.3946C1.52373 14.4112 1.53203 14.4279 1.54863 14.4362C3.04301 15.532 4.47928 16.1962 5.89894 16.6362C5.92385 16.6445 5.94876 16.6362 5.95706 16.6196C6.28914 16.163 6.58802 15.6815 6.84539 15.175C6.86199 15.1418 6.84539 15.1086 6.81218 15.1003C6.33896 14.9177 5.89064 14.7018 5.45063 14.4528C5.41742 14.4362 5.41742 14.3863 5.44233 14.3614C5.53365 14.295 5.62497 14.2203 5.7163 14.1539C5.7329 14.1373 5.75781 14.1373 5.77441 14.1456C8.63034 15.449 11.7104 15.449 14.5332 14.1456C14.5498 14.1373 14.5747 14.1373 14.5913 14.1539C14.6826 14.2286 14.7739 14.295 14.8652 14.3697C14.8984 14.3946 14.8984 14.4445 14.8569 14.4611C14.4252 14.7184 13.9686 14.926 13.4954 15.1086C13.4622 15.1169 13.4539 15.1584 13.4622 15.1833C13.7278 15.6898 14.0267 16.1713 14.3505 16.6279C14.3754 16.6362 14.4003 16.6445 14.4252 16.6362C15.8532 16.1962 17.2895 15.532 18.7838 14.4362C18.8004 14.4279 18.8087 14.4112 18.8087 14.3946C19.174 10.6338 18.2027 7.37105 16.2351 4.47361C16.2268 4.46531 16.2185 4.457 16.2019 4.457ZM7.2771 12.4104C6.42198 12.4104 5.708 11.6217 5.708 10.6504C5.708 9.67904 6.40537 8.89034 7.2771 8.89034C8.15712 8.89034 8.8545 9.68734 8.8462 10.6504C8.8462 11.6217 8.14882 12.4104 7.2771 12.4104ZM13.0637 12.4104C12.2086 12.4104 11.4946 11.6217 11.4946 10.6504C11.4946 9.67904 12.192 8.89034 13.0637 8.89034C13.9437 8.89034 14.6411 9.68734 14.6328 10.6504C14.6328 11.6217 13.9437 12.4104 13.0637 12.4104Z" fill="url(#paint0_linear_0_44)"/>
<defs>
<linearGradient id="paint0_linear_0_44" x1="10.1628" y1="2.15524" x2="10.1628" y2="15.2516" gradientUnits="userSpaceOnUse">
<stop stop-color="#FFBA3B"/>
<stop offset="0.5315" stop-color="#FFA53B"/>
<stop offset="1" stop-color="#FF983B"/>
</linearGradient>
</defs>
</svg>
