<svg width="21" height="21" viewBox="0 0 21 21" fill="none" xmlns="http://www.w3.org/2000/svg">
<path d="M18.7393 5.54247C18.1439 5.79932 17.4959 5.98417 16.8285 6.05617C17.5214 5.6445 18.0403 4.99414 18.2879 4.22711C17.6376 4.61391 16.9253 4.88515 16.1825 5.02878C15.872 4.69688 15.4966 4.43247 15.0794 4.25203C14.6623 4.07159 14.2125 3.97898 13.758 3.97999C11.9192 3.97999 10.4404 5.47048 10.4404 7.29954C10.4404 7.55639 10.4716 7.81323 10.5221 8.06035C7.76883 7.91636 5.31321 6.60099 3.68068 4.58708C3.38321 5.09516 3.22733 5.67367 3.22925 6.26242C3.22925 7.41434 3.81494 8.43006 4.70807 9.02742C4.18173 9.00669 3.66773 8.86202 3.20785 8.60518V8.64604C3.20785 10.2591 4.34809 11.5959 5.86777 11.9033C5.58243 11.9774 5.2889 12.0154 4.9941 12.0162C4.77812 12.0162 4.57381 11.9948 4.36755 11.9656C4.78784 13.281 6.01176 14.2364 7.46917 14.2675C6.32893 15.1606 4.9007 15.686 3.34989 15.686C3.07164 15.686 2.81479 15.6763 2.54822 15.6451C4.01925 16.5888 5.76464 17.1337 7.64429 17.1337C13.7464 17.1337 17.0854 12.0784 17.0854 7.69065C17.0854 7.54666 17.0854 7.40267 17.0756 7.25868C17.7216 6.78585 18.2879 6.20016 18.7393 5.54247Z" fill="url(#paint0_linear_0_48)"/>
<defs>
<linearGradient id="paint0_linear_0_48" x1="10.6394" y1="2.79444" x2="10.6394" y2="15.7595" gradientUnits="userSpaceOnUse">
<stop stop-color="#FFBA3B"/>
<stop offset="0.5315" stop-color="#FFA53B"/>
<stop offset="1" stop-color="#FF983B"/>
</linearGradient>
</defs>
</svg>
