<svg width="21" height="21" viewBox="0 0 21 21" fill="none" xmlns="http://www.w3.org/2000/svg">
<path d="M18.5557 5.44775C17.9603 5.70459 17.3123 5.88945 16.6449 5.96144C17.3378 5.54978 17.8568 4.89942 18.1043 4.13238C17.4541 4.51919 16.7417 4.79042 15.9989 4.93405C15.6884 4.60215 15.313 4.33774 14.8958 4.1573C14.4787 3.97686 14.0289 3.88426 13.5744 3.88526C11.7356 3.88526 10.2568 5.37575 10.2568 7.20481C10.2568 7.46166 10.288 7.71851 10.3386 7.96563C7.58523 7.82164 5.12962 6.50627 3.49709 4.49235C3.19962 5.00044 3.04374 5.57895 3.04566 6.1677C3.04566 7.31962 3.63135 8.33533 4.52447 8.93269C3.99814 8.91196 3.48413 8.7673 3.02425 8.51045V8.55131C3.02425 10.1644 4.1645 11.5012 5.68418 11.8086C5.39884 11.8827 5.10531 11.9206 4.81051 11.9215C4.59452 11.9215 4.39021 11.9001 4.18396 11.8709C4.60425 13.1862 5.82817 14.1416 7.28558 14.1728C6.14533 15.0659 4.71711 15.5913 3.1663 15.5913C2.88805 15.5913 2.6312 15.5815 2.36462 15.5504C3.83566 16.4941 5.58105 17.0389 7.4607 17.0389C13.5628 17.0389 16.9018 11.9837 16.9018 7.59592C16.9018 7.45193 16.9018 7.30794 16.892 7.16395C17.538 6.69112 18.1043 6.10543 18.5557 5.44775Z" fill="url(#paint0_linear_0_48)"/>
<defs>
<linearGradient id="paint0_linear_0_48" x1="10.4558" y1="2.69971" x2="10.4558" y2="15.6648" gradientUnits="userSpaceOnUse">
<stop stop-color="#FFBA3B"/>
<stop offset="0.5315" stop-color="#FFA53B"/>
<stop offset="1" stop-color="#FF983B"/>
</linearGradient>
</defs>
</svg>
